<svg width="35" height="35" viewBox="0 0 35 35" fill="none" xmlns="http://www.w3.org/2000/svg">
<path d="M24.7917 11.6667V10.2083C24.7917 6.18771 21.5206 2.91667 17.5 2.91667C13.4794 2.91667 10.2083 6.18771 10.2083 10.2083V14.5833H8.75001C7.14147 14.5833 5.83334 15.8915 5.83334 17.5V29.1667C5.83334 30.7752 7.14147 32.0833 8.75001 32.0833H26.25C27.8586 32.0833 29.1667 30.7752 29.1667 29.1667V17.5C29.1667 15.8915 27.8586 14.5833 26.25 14.5833H13.125V10.2083C13.125 7.79625 15.0879 5.83333 17.5 5.83333C19.9121 5.83333 21.875 7.79625 21.875 10.2083V11.6667H24.7917Z" fill="white"/>
</svg>
