<svg width="74" height="21" viewBox="0 0 74 21" fill="none" xmlns="http://www.w3.org/2000/svg">
<path d="M6.85938 20.0469C6.41146 20.0469 6.05729 20 5.79688 19.9062C5.53646 19.8021 5.38542 19.6562 5.34375 19.4688L0.953125 1.64062C0.911458 1.52604 0.890625 1.38542 0.890625 1.21875C0.890625 0.989583 1.03125 0.8125 1.3125 0.6875C1.60417 0.552083 2.04167 0.484375 2.625 0.484375H3.34375C4.42708 0.484375 5.04688 0.776042 5.20312 1.35938L7.28125 10.2969C7.3125 10.4531 7.4375 11.0417 7.65625 12.0625L8.14062 14.2969C8.26562 13.5365 8.50521 12.4792 8.85938 11.125L9.07812 10.2969L11.375 1.07812C11.4167 0.869792 11.5625 0.71875 11.8125 0.625C12.0729 0.53125 12.4323 0.484375 12.8906 0.484375H13.9531C14.4115 0.484375 14.7656 0.53125 15.0156 0.625C15.276 0.71875 15.4271 0.869792 15.4688 1.07812L17.6719 10.2969C17.9427 11.4427 18.2604 12.8385 18.625 14.4844C18.6667 14.2969 18.8125 13.6406 19.0625 12.5156L19.5625 10.2969L21.7188 1.35938C21.875 0.776042 22.4948 0.484375 23.5781 0.484375H23.8906C24.4635 0.484375 24.8906 0.552083 25.1719 0.6875C25.4635 0.8125 25.6094 0.989583 25.6094 1.21875C25.6094 1.29167 25.6042 1.36458 25.5938 1.4375C25.5833 1.5 25.5729 1.56771 25.5625 1.64062L21.0312 19.4688C20.9792 19.6562 20.8125 19.8021 20.5312 19.9062C20.25 20 19.9062 20.0469 19.5 20.0469H17.4688C17.0625 20.0469 16.7188 20 16.4375 19.9062C16.1562 19.8021 15.9948 19.6562 15.9531 19.4688L13.6719 9.85938L13.2344 7.96875L12.75 9.85938L10.3906 19.4688C10.3385 19.6562 10.1719 19.8021 9.89062 19.9062C9.60938 20 9.26562 20.0469 8.85938 20.0469H6.85938ZM26.3594 20.0469C25.224 20.0469 24.6562 19.8438 24.6562 19.4375C24.6562 19.3229 24.6927 19.1562 24.7656 18.9375L30.8906 1.07812C31.0365 0.682292 31.5625 0.484375 32.4688 0.484375H33.9062C34.8125 0.484375 35.3385 0.682292 35.4844 1.07812L41.6094 18.9375C41.6615 19.1458 41.6875 19.3125 41.6875 19.4375C41.6875 19.6458 41.5729 19.8021 41.3438 19.9062C41.125 20 40.776 20.0469 40.2969 20.0469H39.0781C38.6406 20.0469 38.2865 20.0052 38.0156 19.9219C37.7552 19.8281 37.5938 19.6771 37.5312 19.4688L36.4062 16.0781H29.8594L28.7344 19.4688C28.6198 19.8542 28.1927 20.0469 27.4531 20.0469H26.3594ZM35.2188 12.4062L33.6406 7.46875C33.5469 7.21875 33.4635 6.93229 33.3906 6.60938C33.3281 6.28646 33.2708 5.97917 33.2188 5.6875H33.1094L33.0469 6.03125C32.9427 6.64583 32.8229 7.125 32.6875 7.46875L31.0469 12.4062H35.2188ZM48.8281 20.2344C47.5156 20.2344 46.3594 20.1042 45.3594 19.8438C44.3698 19.5729 43.6094 19.2448 43.0781 18.8594C42.5573 18.474 42.2969 18.1094 42.2969 17.7656C42.2969 17.4948 42.3958 17.1615 42.5938 16.7656C42.8021 16.3698 43.0469 16.0312 43.3281 15.75C43.6094 15.4583 43.8438 15.3125 44.0312 15.3125C44.1458 15.3125 44.3906 15.4115 44.7656 15.6094C45.3281 15.901 45.8594 16.1354 46.3594 16.3125C46.8698 16.4896 47.4531 16.5781 48.1094 16.5781C48.8385 16.5781 49.4531 16.4375 49.9531 16.1562C50.4635 15.8646 50.7188 15.3594 50.7188 14.6406C50.7188 14.224 50.5885 13.8646 50.3281 13.5625C50.0677 13.2604 49.7344 13.0052 49.3281 12.7969C48.9219 12.5885 48.3698 12.3438 47.6719 12.0625L46.4375 11.5312C45.6875 11.1667 45.0417 10.7656 44.5 10.3281C43.9688 9.89062 43.5312 9.3125 43.1875 8.59375C42.8542 7.875 42.6875 6.99479 42.6875 5.95312C42.6875 4.68229 43 3.625 43.625 2.78125C44.25 1.9375 45.0625 1.31771 46.0625 0.921875C47.0625 0.526042 48.1354 0.328125 49.2812 0.328125C50.2188 0.328125 51.0677 0.427083 51.8281 0.625C52.5885 0.8125 53.1823 1.05729 53.6094 1.35938C54.0469 1.66146 54.2656 1.96354 54.2656 2.26562C54.2656 2.51562 54.1823 2.83854 54.0156 3.23438C53.8594 3.61979 53.6615 3.95833 53.4219 4.25C53.1823 4.54167 52.9583 4.6875 52.75 4.6875C52.6562 4.6875 52.4896 4.63542 52.25 4.53125C51.8646 4.375 51.474 4.25 51.0781 4.15625C50.6927 4.05208 50.2188 4 49.6562 4C48.6875 4 48.0156 4.15625 47.6406 4.46875C47.2656 4.77083 47.0781 5.13021 47.0781 5.54688C47.0781 6.02604 47.2031 6.42708 47.4531 6.75C47.7135 7.07292 48.0365 7.33854 48.4219 7.54688C48.8177 7.75521 49.3646 7.99479 50.0625 8.26562C51.1146 8.71354 51.974 9.14062 52.6406 9.54688C53.3073 9.94271 53.8802 10.5156 54.3594 11.2656C54.849 12.0156 55.0938 12.974 55.0938 14.1406C55.0938 15.5677 54.7917 16.7396 54.1875 17.6562C53.5938 18.5625 52.8229 19.2188 51.875 19.625C50.9375 20.0312 49.9219 20.2344 48.8281 20.2344ZM58.625 20C58.2396 20 57.9583 19.9115 57.7812 19.7344C57.6042 19.5573 57.5156 19.276 57.5156 18.8906V1.65625C57.5156 1.27083 57.6042 0.994792 57.7812 0.828125C57.9583 0.651042 58.2396 0.5625 58.625 0.5625H64.8438C66.75 0.5625 68.3646 0.9375 69.6875 1.6875C71.0208 2.42708 72.026 3.52083 72.7031 4.96875C73.3906 6.41667 73.7344 8.18229 73.7344 10.2656C73.7344 12.3594 73.3906 14.1302 72.7031 15.5781C72.026 17.026 71.0208 18.125 69.6875 18.875C68.3646 19.625 66.75 20 64.8438 20H58.625ZM64.8438 16.3594C66.3229 16.3594 67.4427 15.8438 68.2031 14.8125C68.9635 13.7708 69.3438 12.2552 69.3438 10.2656C69.3438 8.28646 68.9635 6.78125 68.2031 5.75C67.4427 4.70833 66.3229 4.1875 64.8438 4.1875H61.8281V16.3594H64.8438Z" fill="white"/>
</svg>
